<svg xmlns="http://www.w3.org/2000/svg" viewBox="0 0 1015.64 227.38"><defs><style>.cls-1{fill:#ed7966;}.cls-2{opacity:0.3;}</style></defs><g id="Layer_2" data-name="Layer 2"><g id="Layer_1-2" data-name="Layer 1"><path class="cls-1" d="M3.73,29.15H179.12V56.21H3.73ZM76,43.38h30.79V204.07H76Z" transform="translate(-3.73 -20.06)"/><path class="cls-1" d="M290.37,138.07q-4.44,20.76-14.69,36.38a74.55,74.55,0,0,1-25.31,24.26,66.1,66.1,0,0,1-33.47,8.63q-19.36,0-34.28-8.75a61.25,61.25,0,0,1-23.33-24.37q-8.39-15.61-8.39-36.15,0-20.76,8.39-36.27a61.52,61.52,0,0,1,23.33-24.25q14.92-8.74,34.28-8.75a66.1,66.1,0,0,1,33.47,8.63,76,76,0,0,1,25.42,24.14Q286.17,117.08,290.37,138.07Zm-108.69,0a48.48,48.48,0,0,0,5.49,23.44,40.45,40.45,0,0,0,15,15.86,41.88,41.88,0,0,0,21.92,5.71,48.81,48.81,0,0,0,23.32-5.71,62.33,62.33,0,0,0,19-15.86,80.9,80.9,0,0,0,13.18-23.44,81,81,0,0,0-13.18-23.44,62.33,62.33,0,0,0-19-15.86,48.81,48.81,0,0,0-23.32-5.71,41.88,41.88,0,0,0-21.92,5.71,40.45,40.45,0,0,0-15,15.86A48.51,48.51,0,0,0,181.68,138.07Zm99.36,66-5.13-49,6.06-17-6.06-16.79L281,72.07h31.25l-7,66,7,66Z" transform="translate(-3.73 -20.06)"/><path class="cls-1" d="M478.11,164a37,37,0,0,1-7.46,23.09q-7.47,9.8-22.62,15t-38,5.25q-23.56,0-40.81-6T342.49,184.6a40.13,40.13,0,0,1-10.14-25.07h30.78a23.68,23.68,0,0,0,7.58,13.18q6.18,5.72,16.33,8.74a81.09,81.09,0,0,0,23.2,3q18.9,0,28.46-4.54t9.56-13.88q0-6.3-6.41-9.56t-24.14-4.9l-25.89-2.33q-21-1.87-33.12-7.58t-17.26-14a32.88,32.88,0,0,1-5.13-17.61q0-13.51,8.4-22.62T368,73.58Q383,68.81,402.78,68.8q20.52,0,36.62,5.72t25.65,15.86a38.22,38.22,0,0,1,10.73,23.44H445a20.85,20.85,0,0,0-5.49-10.38q-4.54-5-13.76-8.4t-24.6-3.38q-16.33,0-25.54,4.2t-9.21,12.36q0,5.13,5.6,8.74t20.75,5l33.35,3q20.06,1.88,31.37,7.11t16,13.41A36.51,36.51,0,0,1,478.11,164Z" transform="translate(-3.73 -20.06)"/><path class="cls-1" d="M532.92,177.72l-8.86-3.27L608,72.07h35l-112.19,132H502.6V24.49h30.32Zm37.55-38.95,21.22-19.12L647,204.07H611.28Z" transform="translate(-3.73 -20.06)"/><path class="cls-1" d="M677.52,54.58q-8.62,0-14.23-4.79a15.6,15.6,0,0,1-5.59-12.47,15.64,15.64,0,0,1,5.59-12.48q5.6-4.78,14.23-4.78,8.87,0,14.34,4.78a15.77,15.77,0,0,1,5.49,12.48,15.73,15.73,0,0,1-5.49,12.47Q686.39,54.58,677.52,54.58ZM662.36,71.13l15.16,2.8,15.16-2.8V204.07H662.36Z" transform="translate(-3.73 -20.06)"/><path class="cls-1" d="M712.74,104.49V81.16H831.68v23.33Zm92.12-59.71q-17,0-25.3,7.23t-8.28,23.56v128.5H741V78.36q0-17,6.41-29.85a45.81,45.81,0,0,1,19.82-20.06q13.41-7.21,34.17-7.23a85.9,85.9,0,0,1,17.73,1.64,131.44,131.44,0,0,1,15.16,4.19V50.84a57.18,57.18,0,0,0-14-4.66A81.16,81.16,0,0,0,804.86,44.78Z" transform="translate(-3.73 -20.06)"/><path class="cls-1" d="M897.22,199.88,836.58,72.07h33.35L927.3,199.88Zm-15.16,45.94A71.54,71.54,0,0,1,861,242.91a74.07,74.07,0,0,1-17.61-8V211.77a74.44,74.44,0,0,0,16.91,8.16,59.41,59.41,0,0,0,18.08,2.57,33.37,33.37,0,0,0,17-4.32q7.47-4.31,12.36-15L967.19,72.07h32.18L931,213.4a62.71,62.71,0,0,1-13.18,18.78,48.38,48.38,0,0,1-16.56,10.38A56,56,0,0,1,882.06,245.82Z" transform="translate(-3.73 -20.06)"/><g class="cls-2"><path class="cls-1" d="M23.73,30.77H199.12V57.82H23.73ZM96,45h30.79v160.7H96Z" transform="translate(-3.73 -20.06)"/><path class="cls-1" d="M310.37,139.68q-4.44,20.76-14.69,36.39a74.61,74.61,0,0,1-25.31,24.25A66.1,66.1,0,0,1,236.9,209q-19.36,0-34.28-8.74a61.27,61.27,0,0,1-23.33-24.38q-8.39-15.62-8.39-36.15,0-20.75,8.39-36.26a61.48,61.48,0,0,1,23.33-24.26q14.92-8.75,34.28-8.75A66.1,66.1,0,0,1,270.37,79a76,76,0,0,1,25.42,24.14Q306.17,118.69,310.37,139.68Zm-108.69,0a48.48,48.48,0,0,0,5.49,23.44,40.45,40.45,0,0,0,15,15.86,41.88,41.88,0,0,0,21.92,5.72A48.81,48.81,0,0,0,267.45,179a62.33,62.33,0,0,0,19-15.86,80.9,80.9,0,0,0,13.18-23.44,81,81,0,0,0-13.18-23.44,62.48,62.48,0,0,0-19-15.86,48.92,48.92,0,0,0-23.32-5.71,42,42,0,0,0-21.92,5.71,40.52,40.52,0,0,0-15,15.86A48.51,48.51,0,0,0,201.68,139.68Zm99.36,66-5.13-49,6.06-17-6.06-16.79L301,73.68h31.25l-7,66,7,66Z" transform="translate(-3.73 -20.06)"/><path class="cls-1" d="M498.11,165.57a37,37,0,0,1-7.46,23.09q-7.47,9.79-22.62,15T430,209q-23.56,0-40.81-5.95t-26.71-16.79a40.13,40.13,0,0,1-10.14-25.07h30.78a23.68,23.68,0,0,0,7.58,13.18q6.18,5.72,16.33,8.74a80.73,80.73,0,0,0,23.2,3q18.9,0,28.46-4.55t9.56-13.88q0-6.3-6.41-9.56t-24.14-4.9l-25.89-2.33q-21-1.87-33.12-7.58t-17.26-14a32.82,32.82,0,0,1-5.13-17.6q0-13.53,8.4-22.63T388,75.2q14.93-4.78,34.75-4.79,20.52,0,36.62,5.72T485.05,92a38.22,38.22,0,0,1,10.73,23.44H465a20.85,20.85,0,0,0-5.49-10.38q-4.54-5-13.76-8.4t-24.6-3.38q-16.33,0-25.54,4.2t-9.21,12.36q0,5.13,5.6,8.75t20.75,5l33.35,3q20.06,1.88,31.37,7.12t16,13.41A36.44,36.44,0,0,1,498.11,165.57Z" transform="translate(-3.73 -20.06)"/><path class="cls-1" d="M552.92,179.33l-8.86-3.26L628,73.68h35l-112.19,132H522.6V26.1h30.32Zm37.55-39,21.22-19.12L667,205.69H631.28Z" transform="translate(-3.73 -20.06)"/><path class="cls-1" d="M697.52,56.19q-8.62,0-14.23-4.78a15.64,15.64,0,0,1-5.59-12.48,15.64,15.64,0,0,1,5.59-12.48q5.6-4.77,14.23-4.78,8.87,0,14.34,4.78a15.77,15.77,0,0,1,5.49,12.48,15.77,15.77,0,0,1-5.49,12.48Q706.39,56.18,697.52,56.19ZM682.36,72.75l15.16,2.79,15.16-2.79V205.69H682.36Z" transform="translate(-3.73 -20.06)"/><path class="cls-1" d="M732.74,106.1V82.78H851.68V106.1Zm92.12-59.71q-17,0-25.3,7.23t-8.28,23.56V205.69H761V80q0-17,6.41-29.86a45.73,45.73,0,0,1,19.82-20q13.41-7.23,34.17-7.23a85.94,85.94,0,0,1,17.73,1.63,129.5,129.5,0,0,1,15.16,4.2V52.46a56.79,56.79,0,0,0-14-4.67A81.16,81.16,0,0,0,824.86,46.39Z" transform="translate(-3.73 -20.06)"/><path class="cls-1" d="M917.22,201.49,856.58,73.68h33.35L947.3,201.49Zm-15.16,45.94A71.54,71.54,0,0,1,881,244.52a74.07,74.07,0,0,1-17.61-8.05V213.38a74.44,74.44,0,0,0,16.91,8.16,59.41,59.41,0,0,0,18.08,2.57,33.46,33.46,0,0,0,17-4.31q7.47-4.32,12.36-15.05L987.19,73.68h32.18L951,215a62.79,62.79,0,0,1-13.18,18.77,48.38,48.38,0,0,1-16.56,10.38A56,56,0,0,1,902.06,247.43Z" transform="translate(-3.73 -20.06)"/></g></g></g></svg>