<svg xmlns="http://www.w3.org/2000/svg" viewBox="0 0 384 384"><defs><style>.cls-1{fill:#fae5df;}.cls-2{fill:#ed7966;}.cls-3{opacity:0.3;}</style></defs><g id="Layer_2" data-name="Layer 2"><g id="Layer_1-2" data-name="Layer 1"><circle class="cls-1" cx="192" cy="192" r="192"/><path class="cls-2" d="M31.3,114.27H206.69v27.05H31.3Zm72.3,14.22h30.79v160.7H103.6Z"/><path class="cls-2" d="M240.28,285,179.64,157.18H213L270.36,285Zm-15.16,45.94A71.54,71.54,0,0,1,204,328a74.07,74.07,0,0,1-17.61-8V296.88a74.73,74.73,0,0,0,16.91,8.17,59.66,59.66,0,0,0,18.07,2.56,33.47,33.47,0,0,0,17-4.31q7.46-4.32,12.36-15.05l59.47-131.07h32.19L274.09,298.52a62.46,62.46,0,0,1-13.17,18.77,48.38,48.38,0,0,1-16.56,10.38A56,56,0,0,1,225.12,330.93Z"/><g class="cls-3"><path class="cls-2" d="M51.3,114.27H226.69v27.05H51.3Zm72.3,14.22h30.79v160.7H123.6Z"/><path class="cls-2" d="M260.28,285,199.64,157.18H233L290.36,285Zm-15.16,45.94A71.54,71.54,0,0,1,224,328a74.07,74.07,0,0,1-17.61-8V296.88a74.73,74.73,0,0,0,16.91,8.17,59.66,59.66,0,0,0,18.07,2.56,33.47,33.47,0,0,0,17-4.31q7.45-4.32,12.36-15.05l59.47-131.07h32.19L294.09,298.52a62.46,62.46,0,0,1-13.17,18.77,48.38,48.38,0,0,1-16.56,10.38A56,56,0,0,1,245.12,330.93Z"/></g></g></g></svg>